<svg width="94" height="102" viewBox="0 0 94 102" fill="none" xmlns="http://www.w3.org/2000/svg"><path d="M2.74004 2.40109C1.56504 3.60034 0.88504 5.46747 0.88504 7.88547V94.134C0.88504 96.552 1.56504 98.4191 2.74004 99.6183L3.03004 99.8816L52.6 51.5703V50.4296L3.03004 2.11835L2.74004 2.40109Z" fill="url(#paint0_linear_403_254)"/><path d="M69.1049 67.6822L52.5999 51.5703V50.4296L69.1249 34.3177L69.4949 34.5273L89.0649 45.3839C94.6499 48.4649 94.6499 53.5349 89.0649 56.6354L69.4949 67.4726L69.1049 67.6822V67.6822Z" fill="url(#paint1_linear_403_254)"/><path d="M69.495 67.4726L52.6 51L2.73999 99.6184C4.59499 101.52 7.61999 101.749 11.06 99.8475L69.495 67.4726" fill="url(#paint2_linear_403_254)"/><path d="M69.495 34.5274L11.06 2.15251C7.61999 0.270765 4.59499 0.499884 2.73999 2.40113L52.6 51L69.495 34.5274Z" fill="url(#paint3_linear_403_254)"/><defs><linearGradient id="paint0_linear_403_254" x1="48.1988" y1="95.0321" x2="-17.2316" y2="27.9241" gradientUnits="userSpaceOnUse"><stop stop-color="#00A0FF"/><stop offset="0.0066" stop-color="#00A1FF"/><stop offset="0.2601" stop-color="#00BEFF"/><stop offset="0.5122" stop-color="#00D2FF"/><stop offset="0.7604" stop-color="#00DFFF"/><stop offset="1" stop-color="#00E3FF"/></linearGradient><linearGradient id="paint1_linear_403_254" x1="96.3375" y1="50.9945" x2="-0.450102" y2="50.9945" gradientUnits="userSpaceOnUse"><stop stop-color="#FFE000"/><stop offset="0.4087" stop-color="#FFBD00"/><stop offset="0.7754" stop-color="#FFA500"/><stop offset="1" stop-color="#FF9C00"/></linearGradient><linearGradient id="paint2_linear_403_254" x1="60.308" y1="42.0452" x2="-28.4209" y2="-48.9588" gradientUnits="userSpaceOnUse"><stop stop-color="#FF3A44"/><stop offset="1" stop-color="#C31162"/></linearGradient><linearGradient id="paint3_linear_403_254" x1="-9.81081" y1="128.313" x2="29.8106" y2="87.6758" gradientUnits="userSpaceOnUse"><stop stop-color="#32A071"/><stop offset="0.0685" stop-color="#2DA771"/><stop offset="0.4762" stop-color="#15CF74"/><stop offset="0.8009" stop-color="#06E775"/><stop offset="1" stop-color="#00F076"/></linearGradient></defs></svg>