<svg width="84" height="100" viewBox="0 0 84 100" fill="none" xmlns="http://www.w3.org/2000/svg">
<path d="M69.512 53.1576C69.396 40.5879 80.068 34.4727 80.556 34.188C74.512 25.5963 65.144 24.4224 61.852 24.3288C53.984 23.5215 46.352 28.9191 42.344 28.9191C38.256 28.9191 32.084 24.4068 25.432 24.5394C16.872 24.6681 8.86399 29.5002 4.47198 37.0038C-4.59202 52.3035 2.16799 74.787 10.852 87.1539C15.196 93.2106 20.272 99.9732 26.916 99.7353C33.416 99.474 35.844 95.6949 43.688 95.6949C51.46 95.6949 53.74 99.7353 60.516 99.5832C67.492 99.474 71.884 93.4992 76.076 87.3879C81.096 80.4459 83.112 73.6092 83.192 73.2582C83.028 73.2036 69.644 68.2233 69.512 53.1576Z" fill="white"/>
<path d="M56.712 16.1934C60.208 11.9307 62.6 6.13138 61.936 0.246277C56.876 0.464677 50.548 3.65878 46.904 7.82788C43.68 11.5017 40.8 17.5233 41.544 23.1861C47.228 23.5995 53.064 20.3898 56.712 16.1934Z" fill="white"/>
</svg>
